<svg id="Layer_1" data-name="Layer 1" xmlns="http://www.w3.org/2000/svg" viewBox="0 0 1080 288.21"><path d="M1051.56,21.94C1037.68,12.69,1022.47,9.36,993,9.36H904.09V229.9H952V150.55h49.6c25.44,0,41.3-4.64,54.86-15.86,15.57-12.9,23.5-31.43,23.5-54.24,0-25.44-9.94-45.61-28.44-58.51ZM995,112.87H952V49.06h40.31c14.22,0,22.52,2,28.77,5.95,7.6,5.27,11.91,14.55,11.91,25.77,0,21.49-11.91,32.09-38,32.09Z"/><path d="M26.79,70.11V216.6c0,18.82,0,20.83-1,25.77-1.68,6.94-5.95,10.27-14.87,10.27H3.33A31.32,31.32,0,0,0,0,252v35.38a153,153,0,0,0,24.12.66c17.88-.66,29.79-5.63,37.72-15.54,7-8.62,8.92-18.53,8.92-42.32v-160Zm175.22,0v79.35c0,15.9-1,23.83-3.95,30.11-5.63,11.55-16.56,18.17-29.79,18.17-12.86,0-22.47-5.3-25.44-14.55-2-5.63-2.3-9.57-2.3-24.45V70.11H96.2v101.5c0,20.83,3,33.07,10.27,43,9.25,12.57,25.77,19.85,45.61,19.85,22.48,0,38.38-8.27,51.9-27.12v22.84h42v-160Zm69.11,160.05h43.64v-160H271.12Zm179.21-61.51c-3,21.49-14.88,32.42-34.73,32.42-23.13,0-36-18.54-36-52.6,0-30.08,14.54-50.26,37-50.26,17.87,0,29.09,9.62,32.42,27.78h43c-3.65-37.35-32.09-60.49-75.4-60.49-47.62,0-81.65,34.36-81.65,82.64,0,25.81,4.93,42,17.83,58.19,14.88,18.53,35.71,27.78,63.16,27.78,43,0,71.75-24.13,77.38-65.46Zm215.89-13.56c0-53.55-31.39-89.26-78.69-89.26-46.31,0-80.66,36-80.66,85,0,50.91,32.38,84.28,81.65,84.28,37.35,0,66.45-21.16,75.07-54.2h-42c-7,16.85-16.23,23.14-34.4,23.14-21.49,0-35.05-15.54-35.71-42.33H666.22Zm-114.4-21.17c2.31-22.47,15.87-36.36,35.38-36.36s32.06,12.9,34.4,36.36Z"/><path d="M293.2,53.37c14.95,0,26.39-11.72,26.39-27A26.1,26.1,0,0,0,293.2,0C278,0,266.51,11.73,266.51,26.39c0,15.26,11.44,27,26.69,27Z"/><path d="M48.91,54.28c15,0,26.39-11.72,26.39-27A26.1,26.1,0,0,0,48.91.91C33.66.91,22.22,12.64,22.22,27.3c0,15.26,11.44,27,26.69,27Z"/><path d="M688.52,9.36V138c0,30.78,3.62,47,13.56,61.84,15.53,23.47,41.66,34.4,81,34.4,36.7,0,60.2-8.63,76.39-28.11,13.56-16.56,18.17-33.74,18.17-67.47V9.36Zm123,174.82A48.7,48.7,0,0,1,783.33,193v-.07a48.59,48.59,0,0,1-28.18-8.77c-26.76-19.45-19.78-47.23-14.4-61.7,4.75-12.61,42.58-82,42.58-82v.08s37.83,69.37,42.54,82C831.28,137,838.26,164.7,811.51,184.18Z"/></svg>